<svg width="24" height="24" viewBox="0 0 24 24" fill="none" xmlns="http://www.w3.org/2000/svg">
<path fill-rule="evenodd" clip-rule="evenodd" d="M12.72 2.03001C6.63001 1.60001 1.60001 6.63001 2.03001 12.72C2.39001 18.01 7.01001 22 12.31 22H16C16.55 22 17 21.55 17 21C17 20.45 16.55 20 16 20H12.33C8.60001 20 5.18001 17.58 4.25001 13.97C2.76001 8.17001 8.16001 2.76001 13.96 4.26001C17.58 5.18001 20 8.60001 20 12.33V13.43C20 14.22 19.29 15 18.5 15C17.71 15 17 14.22 17 13.43V12.18C17 9.67001 15.22 7.41001 12.74 7.06001C9.34001 6.57001 6.47001 9.51001 7.08001 12.93C7.42001 14.84 8.91001 16.42 10.8 16.87C12.64 17.3 14.39 16.71 15.54 15.54C16.43 16.76 18.21 17.4 19.84 16.75C21.18 16.22 22 14.85 22 13.41V12.32C22 7.01001 18.01 2.39001 12.72 2.03001ZM12 15C10.34 15 9.00001 13.66 9.00001 12C9.00001 10.34 10.34 9.00001 12 9.00001C13.66 9.00001 15 10.34 15 12C15 13.66 13.66 15 12 15Z" fill="#A6A6A6"/>
<path d="M12.72 2.03001L12.7024 2.27939L12.703 2.27943L12.72 2.03001ZM2.03001 12.72L2.27943 12.703L2.27939 12.7024L2.03001 12.72ZM4.25001 13.97L4.00787 14.0322L4.00791 14.0324L4.25001 13.97ZM13.96 4.26001L13.8974 4.50205L13.8984 4.5023L13.96 4.26001ZM12.74 7.06001L12.7043 7.30745L12.7051 7.30755L12.74 7.06001ZM7.08001 12.93L7.32614 12.8862L7.32612 12.8861L7.08001 12.93ZM10.8 16.87L10.7421 17.1132L10.7431 17.1134L10.8 16.87ZM15.54 15.54L15.742 15.3927L15.5683 15.1546L15.3617 15.3648L15.54 15.54ZM19.84 16.75L19.7481 16.5175L19.7474 16.5178L19.84 16.75ZM12.7376 1.78063C6.49595 1.33992 1.33992 6.49595 1.78063 12.7376L2.27939 12.7024C1.8601 6.76407 6.76407 1.8601 12.7024 2.27939L12.7376 1.78063ZM1.78058 12.737C2.15024 18.1689 6.88953 22.25 12.31 22.25V21.75C7.13048 21.75 2.62977 17.8511 2.27943 12.703L1.78058 12.737ZM12.31 22.25H16V21.75H12.31V22.25ZM16 22.25C16.6881 22.25 17.25 21.6881 17.25 21H16.75C16.75 21.4119 16.4119 21.75 16 21.75V22.25ZM17.25 21C17.25 20.3119 16.6881 19.75 16 19.75V20.25C16.4119 20.25 16.75 20.5881 16.75 21H17.25ZM16 19.75H12.33V20.25H16V19.75ZM12.33 19.75C8.70307 19.75 5.391 17.3969 4.4921 13.9076L4.00791 14.0324C4.96902 17.7631 8.49695 20.25 12.33 20.25V19.75ZM4.49214 13.9078C3.04932 8.29143 8.28241 3.04989 13.8974 4.50204L14.0226 4.01797C8.0376 2.47013 2.4707 8.04858 4.00787 14.0322L4.49214 13.9078ZM13.8984 4.5023C17.397 5.39145 19.75 8.70307 19.75 12.33H20.25C20.25 8.49694 17.763 4.96856 14.0216 4.01771L13.8984 4.5023ZM19.75 12.33V13.43H20.25V12.33H19.75ZM19.75 13.43C19.75 13.7519 19.6037 14.0852 19.3641 14.34C19.1246 14.5947 18.8121 14.75 18.5 14.75V15.25C18.9779 15.25 19.4154 15.0153 19.7284 14.6825C20.0413 14.3498 20.25 13.8981 20.25 13.43H19.75ZM18.5 14.75C18.1879 14.75 17.8754 14.5947 17.6359 14.34C17.3963 14.0852 17.25 13.7519 17.25 13.43H16.75C16.75 13.8981 16.9587 14.3498 17.2716 14.6825C17.5846 15.0153 18.0221 15.25 18.5 15.25V14.75ZM17.25 13.43V12.18H16.75V13.43H17.25ZM17.25 12.18C17.25 9.55864 15.3909 7.18165 12.7749 6.81246L12.7051 7.30755C15.0491 7.63836 16.75 9.78137 16.75 12.18H17.25ZM12.7757 6.81256C9.2073 6.2983 6.19391 9.38583 6.83389 12.9739L7.32612 12.8861C6.7461 9.63418 9.47272 6.84172 12.7043 7.30745L12.7757 6.81256ZM6.83388 12.9738C7.19132 14.9818 8.75522 16.6401 10.7421 17.1132L10.8579 16.6268C9.06479 16.1999 7.6487 14.6982 7.32614 12.8862L6.83388 12.9738ZM10.7431 17.1134C12.67 17.5638 14.5086 16.946 15.7183 15.7153L15.3617 15.3648C14.2714 16.474 12.61 17.0363 10.8569 16.6266L10.7431 17.1134ZM15.338 15.6873C16.2916 16.9945 18.1908 17.6768 19.9326 16.9822L19.7474 16.5178C18.2292 17.1232 16.5684 16.5255 15.742 15.3927L15.338 15.6873ZM19.932 16.9825C21.3794 16.41 22.25 14.939 22.25 13.41H21.75C21.75 14.761 20.9806 16.03 19.7481 16.5175L19.932 16.9825ZM22.25 13.41V12.32H21.75V13.41H22.25ZM22.25 12.32C22.25 6.88969 18.169 2.15025 12.737 1.78058L12.703 2.27943C17.851 2.62976 21.75 7.13033 21.75 12.32H22.25ZM12 14.75C10.4781 14.75 9.25001 13.5219 9.25001 12H8.75001C8.75001 13.7981 10.2019 15.25 12 15.25V14.75ZM9.25001 12C9.25001 10.4781 10.4781 9.25001 12 9.25001V8.75001C10.2019 8.75001 8.75001 10.2019 8.75001 12H9.25001ZM12 9.25001C13.5219 9.25001 14.75 10.4781 14.75 12H15.25C15.25 10.2019 13.7981 8.75001 12 8.75001V9.25001ZM14.75 12C14.75 13.5219 13.5219 14.75 12 14.75V15.25C13.7981 15.25 15.25 13.7981 15.25 12H14.75Z" fill="#F2F2F2"/>
</svg>
