<svg width="24" height="24" viewBox="0 0 24 24" fill="none" xmlns="http://www.w3.org/2000/svg">
<g clip-path="url(#clip0_101_3392)">
<path d="M4.11084 6.08805C4.11084 5.94331 4.1999 5.81348 4.33494 5.76138L10.1101 3.53308C11.2304 3.10082 11.6134 2.96556 12 2.96556C12.3866 2.96556 12.7696 3.10082 13.8899 3.53308L19.6651 5.76138C19.8001 5.81348 19.8892 5.94331 19.8892 6.08805V9.70904C19.8892 14.7967 16.7587 19.36 12.012 21.1915L12.282 21.8912L12.012 21.1915C12.0043 21.1945 11.9957 21.1945 11.988 21.1915L11.718 21.8912L11.988 21.1915C7.24133 19.36 4.11084 14.7967 4.11084 9.70904V6.08805Z" stroke="#4C2000" stroke-width="1.5"/>
<path d="M9 10.5757L11 12.5757L15 8.57568" stroke="#4C2000" stroke-width="1.5" stroke-linecap="round" stroke-linejoin="round"/>
</g>
<defs>
<clipPath id="clip0_101_3392">
<rect width="24" height="24" fill="white"/>
</clipPath>
</defs>
</svg>
